mtllib armchair.mtl
v 0.09997362 -0.1445932 -0.2086283
v 0.2315318 -0.1445932 -0.2086283
v 0.2315319 0.2650878 -0.2086284
v 0.09997368 0.2650878 -0.2086284
v 0.09997368 -0.1445932 0.2103223
v 0.09997374 0.2650878 0.2103223
v 0.2315319 0.2650878 0.2103223
v 0.2315319 -0.1445932 0.2103222
v 0.2315319 0.2850878 -0.1880913
v 0.09997368 0.2850878 -0.1810377
v 0.09997374 0.2850878 0.1835626
v 0.2315319 0.2850878 0.184925
v -0.1410446 -0.1441509 -0.2086282
v 0.09997356 -0.144151 -0.2086283
v 0.09997368 0.1106472 -0.2086283
v -0.1410444 0.1106474 -0.2086282
v -0.1410445 -0.144151 -0.1286282
v -0.1410444 0.1106474 -0.1286282
v 0.09997368 0.1106472 -0.1286283
v 0.09997356 -0.1441511 -0.1286283
v 0.09997368 0.1206472 -0.196621
v -0.1410444 0.1206474 -0.191483
v -0.1410444 0.1206474 -0.1420375
v 0.09997368 0.1206472 -0.142416
v -0.1410445 -0.1445931 0.1303224
v 0.09997368 -0.1445932 0.1303223
v 0.09997368 0.1102052 0.1303222
v -0.1410445 0.1102052 0.1303223
v -0.1410444 -0.1445931 0.2103224
v -0.1410445 0.1102052 0.2103223
v 0.0999738 0.1102052 0.2103222
v 0.09997368 -0.1445931 0.2103223
v 0.09997368 0.1202052 0.1394224
v -0.1410445 0.1202052 0.1438444
v -0.1410445 0.1202052 0.1971695
v 0.0999738 0.1202052 0.2075239
v -0.1533987 -0.1489696 -0.1309665
v 0.09997362 -0.1445932 -0.136803
v 0.09997368 -0.05130154 -0.136803
v -0.1500219 -0.04391801 -0.1290203
v -0.1487698 -0.1501235 0.1275135
v -0.1488307 -0.05683267 0.127931
v 0.09997368 -0.05130148 0.1317208
v 0.09997368 -0.1445932 0.1317209
v -0.1531667 -0.1490274 -0.1180104
v 0.09997362 -0.1445932 -0.1138448
v -0.1535203 0.03761184 -0.1301314
v 0.09997368 0.04199016 -0.1368031
v 0.09997368 0.05199015 -0.1138448
v -0.1532949 0.0475539 -0.1171305
v -0.183239 -0.03075892 -0.1169439
v 0.09997362 -0.0463016 -0.1138448
v -0.1493312 0.04656589 0.1042076
v -0.1792753 -0.0317471 0.1043942
v -0.1492029 -0.1500155 0.1033277
v 0.09997368 -0.1445932 0.107531
v 0.09997368 -0.04630148 0.107531
v 0.09997374 0.05199027 0.107531
v -0.1488916 0.03645802 0.1283485
v 0.09997374 0.04199028 0.1317208
vn -1.192093E-07 -2.106688E-07 -1
vn 2.891094E-07 -7.108357E-08 1
vn -1.381032E-07 -1 -4.380033E-15
vn -0.01713257 0.7689451 -0.6390852
vn -1 1.232068E-07 1.227136E-07
vn 1 -1.928575E-07 -1.306675E-07
vn -0.003151109 0.7935074 0.6085526
vn 1.284725E-08 1 2.846446E-14
vn -4.922937E-07 4.975483E-08 -1
vn 4.304678E-07 -3.998719E-08 1
vn -4.746734E-07 -1 -4.211703E-07
vn -0.006029085 0.8245863 -0.5657042
vn -1 4.578779E-07 5.233055E-07
vn 1 -4.743591E-07 -1.801652E-08
vn 0.00046605 0.8056197 0.592433
vn 9.708184E-07 1 -9.512236E-08
vn -5.121926E-07 -2.020627E-07 -1
vn 5.121926E-07 2.127149E-07 1
vn -2.723293E-07 -1 4.00649E-07
vn -0.006076289 0.7491796 -0.6623391
vn -1 6.262526E-08 3.990958E-07
vn 1 -2.72603E-07 -6.761548E-07
vn -2.830668E-08 1 1.465399E-09
vn -0.01679081 0.6234411 0.7816901
vn -0.02698372 0.01026761 -0.9995832
vn -0.01602139 -0.002242502 0.9998692
vn 0.01738616 -0.9998474 -0.001722145
vn -0.01844892 0.8744212 -0.4848168
vn -0.6191822 -0.06345801 -0.7826791
vn 1 -3.155326E-07 1.293071E-06
vn -0.9338768 0.3571257 0.01831797
vn 0.0196584 -0.9998039 -0.002407415
vn 1 -1.628644E-08 -2.916249E-07
vn -0.0196481 0.9998041 0.002406918
vn -0.7829171 0.1355209 0.607186
vn 0.0220324 -0.9997543 -0.00242787
vn 1 -1.599749E-07 2.952409E-07
vn -0.0254619 0.9228987 0.3842002
vn -0.9689975 -0.2465355 0.01625207
vn -0.8619326 -0.1262131 0.4910626
vn -0.01434002 -0.002242136 0.9998947
vn 1 -6.266489E-07 -6.816417E-07
vn 1 -6.226923E-07 -2.763347E-07
vn 1 -3.155327E-07 1.177658E-06
vn -0.02873735 -0.006928156 -0.999563
vn -0.5637244 0.08659849 -0.8214107
vt -0.05142496 0.08358528
vt -0.04554149 0.09535219
vt -0.08218448 0.1136737
vt -0.08806793 0.1019068
vt 0.05142497 0.08358527
vt 0.08806796 0.1019068
vt 0.0821845 0.1136737
vt 0.04554151 0.09535219
vt 0.03565398 0.0422316
vt 0.07510831 0.02814076
vt 0.07953309 0.04053015
vt 0.04007876 0.05462098
vt -0.09192161 0.05732153
vt -0.09133728 0.07046242
vt -0.09419207 0.07059323
vt -0.09531866 0.05746871
vt -0.06422583 0.05658593
vt -0.08803804 0.08992305
vt -0.09144566 0.08994684
vt -0.1211144 0.06875489
vt -0.1221295 0.06557205
vt -0.09831725 0.03223493
vt 0.06422582 0.05658593
vt 0.09831724 0.03223494
vt 0.1221295 0.06557207
vt 0.1212253 0.06867571
vt 0.09087168 0.09035684
vt 0.08803803 0.08992307
vt -0.006980185 0.07168519
vt -0.009767327 0.07004802
vt -0.0031046 0.05870422
vt -0.0002241007 0.06039591
vt -0.04201282 0.05393026
vt -0.07714134 0.04138437
vt -0.07258825 0.02904081
vt -0.03825231 0.04130364
vt -0.06224319 0.06204772
vt -0.05146452 0.08360504
vt -0.07425436 0.09499996
vt -0.08503304 0.07344265
vt 0.06224318 0.06204773
vt 0.08503304 0.07344267
vt 0.07425436 0.09499997
vt 0.05146452 0.08360504
vt 0.02754763 0.01953388
vt 0.03508157 0.01684319
vt 0.04318788 0.03954087
vt 0.03565394 0.04223157
vt -0.07790256 0.02723422
vt -0.0781821 0.05133397
vt -0.07973785 0.0513168
vt -0.07988192 0.02721038
vt -0.06425151 0.05662196
vt -0.07906134 0.07735578
vt -0.08103774 0.07717297
vt -0.0850613 0.07429901
vt -0.08557121 0.07270588
vt -0.07076138 0.05197206
vt 0.06425153 0.05662193
vt 0.07076139 0.05197202
vt 0.08557123 0.07270582
vt 0.08503052 0.07432095
vt 0.08061968 0.07747155
vt 0.07906136 0.07735573
vt 0.01206053 0.06693049
vt 0.01058977 0.06607157
vt 0.02274417 0.0452589
vt 0.02418861 0.04610243
vt -0.03678475 0.04182765
vt -0.04188946 0.04000454
vt -0.03381878 0.01729413
vt -0.02916229 0.01895716
vt -0.06220363 0.06202793
vt -0.05142496 0.08358525
vt -0.07421482 0.09498019
vt -0.08499347 0.07342286
vt 0.06220363 0.06202794
vt 0.08499347 0.07342286
vt 0.07421481 0.0949802
vt 0.05142496 0.08358525
vt 0.0594681 0.008133745
vt 0.06700204 0.005443064
vt 0.07510834 0.02814076
vt 0.0675744 0.03083145
vt -0.1100176 0.03496998
vt -0.1084932 0.05902309
vt -0.1098346 0.05910899
vt -0.1116897 0.03507505
vt -0.09180738 0.03688485
vt -0.1066172 0.05761865
vt -0.1082988 0.05764643
vt -0.112638 0.05454697
vt -0.1131271 0.05296875
vt -0.09831726 0.03223495
vt 0.09180738 0.03688489
vt 0.09831725 0.032235
vt 0.1131271 0.05296881
vt 0.1134806 0.05394519
vt 0.107939 0.05790351
vt 0.1066172 0.05761871
vt -0.06843138 0.0305254
vt -0.07484479 0.02823491
vt -0.06576335 0.005885466
vt -0.06074151 0.00767898
vt 0.01271616 0.07080291
vt 0.01190454 0.07029714
vt 0.02450399 0.04975478
vt 0.02587307 0.05058652
vt -0.06333235 0.05978525
vt -0.05253722 0.08271914
vt -0.06090758 0.08683755
vt -0.07261301 0.06472189
vt 0.0616776 0.06200208
vt 0.07001726 0.06618337
vt 0.05934604 0.08866914
vt 0.05100881 0.08448302
vt 0.03476216 0.01722837
vt 0.03599088 0.01681676
vt 0.04485217 0.04053695
vt 0.0426886 0.04130489
vt -0.07481583 0.02269918
vt -0.07619437 0.04802252
vt -0.07868089 0.04784622
vt -0.07643294 0.02261441
vt -0.07094998 0.03797671
vt -0.08033878 0.04259232
vt -0.08302731 0.04015538
vt -0.07122256 0.03723644
vt 0.07007053 0.05241109
vt 0.07193872 0.05107667
vt 0.07765181 0.05907498
vt 0.07549301 0.06000254
vt -0.06659359 0.08629642
vt -0.0870487 0.07783114
vt -0.08384261 0.07008408
vt -0.0633875 0.07854937
vt 0.03599944 0.01701418
vt 0.05699076 0.009983263
vt 0.06572226 0.03333104
vt 0.04485952 0.04073477
vt 0.07193869 0.05107673
vt 0.08995278 0.03820954
vt 0.09566586 0.04620787
vt 0.07765177 0.05907506
vt -0.04494392 0.04111373
vt -0.06580666 0.03370998
vt -0.05715376 0.01032069
vt -0.03616244 0.01735164
vt -0.003597089 0.1149736
vt -0.00586623 0.1148093
vt -0.01012215 0.106609
vt -0.005729392 0.106969
vt 0.05705108 0.01018788
vt 0.05934508 0.009420389
vt 0.0680545 0.03273052
vt 0.06577453 0.03353873
vt 0.08995278 0.03820951
vt 0.0919212 0.0368035
vt 0.09734366 0.04439496
vt 0.09566587 0.04620783
vt -0.03177255 0.04510946
vt -0.03409707 0.04390609
vt -0.022563 0.02184425
vt -0.02021875 0.02300869
vt -0.09982257 0.007200207
vt -0.08977039 0.0002804712
vt -0.07721791 0.01851526
vt -0.0872701 0.025435
vt -0.01142666 0.1087173
vt -0.01558601 0.1004465
vt -0.01375425 0.09936493
vt -0.007048421 0.1094958
vt 0.07007352 0.06608687
vt 0.07841425 0.070266
vt 0.06774627 0.0927594
vt 0.05940799 0.08857535
vt 0.09734364 0.04439512
vt 0.1027661 0.05198659
vt 0.1013789 0.05420633
vt 0.09566586 0.04620799
vt 0.09566585 0.04620795
vt 0.1013789 0.05420629
vt 0.08336483 0.06707346
vt 0.07765175 0.05907513
vt 0.07765181 0.05907499
vt 0.08336491 0.06707331
vt 0.08091548 0.06759401
vt 0.075493 0.06000255
vt -0.0601279 0.08684108
vt -0.06848076 0.09099548
vt -0.07938169 0.06809582
vt -0.07192688 0.06477506
vt -0.08291326 0.04953199
vt -0.0902343 0.05299885
vt -0.09152589 0.0528508
vt -0.08556394 0.04704029
o group1761739366
g mesh1761739366
usemtl mat20
f 4/4/1 3/3/1 2/2/1 1/1/1
f 8/8/2 7/7/2 6/6/2 5/5/2
f 2/12/3 8/11/3 5/10/3 1/9/3
f 10/16/4 9/15/4 3/14/4 4/13/4
f 5/22/5 6/21/5 11/20/5 10/19/5 4/18/5 1/17/5
f 3/28/6 9/27/6 12/26/6 7/25/6 8/24/6 2/23/6
f 11/32/7 6/31/7 7/30/7 12/29/7
f 10/36/8 11/35/8 12/34/8 9/33/8
o group628430949
g mesh628430949
usemtl mat20
f 16/40/9 15/39/9 14/38/9 13/37/9
f 20/44/10 19/43/10 18/42/10 17/41/10
f 14/48/11 20/47/11 17/46/11 13/45/11
f 22/52/12 21/51/12 15/50/12 16/49/12
f 17/58/13 18/57/13 23/56/13 22/55/13 16/54/13 13/53/13
f 15/64/14 21/63/14 24/62/14 19/61/14 20/60/14 14/59/14
f 23/68/15 18/67/15 19/66/15 24/65/15
f 22/72/16 23/71/16 24/70/16 21/69/16
o group201205049
g mesh201205049
usemtl mat20
f 28/76/17 27/75/17 26/74/17 25/73/17
f 32/80/18 31/79/18 30/78/18 29/77/18
f 26/84/19 32/83/19 29/82/19 25/81/19
f 34/88/20 33/87/20 27/86/20 28/85/20
f 29/94/21 30/93/21 35/92/21 34/91/21 28/90/21 25/89/21
f 27/100/22 33/99/22 36/98/22 31/97/22 32/96/22 26/95/22
f 34/104/23 35/103/23 36/102/23 33/101/23
f 35/108/24 30/107/24 31/106/24 36/105/24
o group1021415585
g mesh1021415585
usemtl mat20
f 40/112/25 39/111/25 38/110/25 37/109/25
f 44/116/26 43/115/26 42/114/26 41/113/26
f 38/120/27 46/119/27 45/118/27 37/117/27
f 50/124/28 49/123/28 48/122/28 47/121/28
f 45/128/29 51/127/29 40/126/29 37/125/29
f 39/132/30 52/131/30 46/130/30 38/129/30
f 51/136/31 54/135/31 53/134/31 50/133/31
f 46/140/32 56/139/32 55/138/32 45/137/32
f 52/144/33 57/143/33 56/142/33 46/141/33
f 50/148/34 53/147/34 58/146/34 49/145/34
f 54/152/35 42/151/35 59/150/35 53/149/35
f 56/156/36 44/155/36 41/154/36 55/153/36
f 57/160/37 43/159/37 44/158/37 56/157/37
f 53/164/38 59/163/38 60/162/38 58/161/38
f 51/168/39 45/167/39 55/166/39 54/165/39
f 54/172/40 55/171/40 41/170/40 42/169/40
f 43/176/41 60/175/41 59/174/41 42/173/41
f 57/180/42 58/179/42 60/178/42 43/177/42
f 52/184/43 49/183/43 58/182/43 57/181/43
f 39/188/44 48/187/44 49/186/44 52/185/44
f 40/192/45 47/191/45 48/190/45 39/189/45
f 51/196/46 50/195/46 47/194/46 40/193/46
